<svg xmlns="http://www.w3.org/2000/svg" viewBox="0 0 202.69 210.02"><defs><style>.cls-1{fill:#fff;}.cls-2{fill:none;stroke:#fff;stroke-miterlimit:10;stroke-width:5px;}</style></defs><title>资源 9</title><g id="图层_2" data-name="图层 2"><g id="图层_1-2" data-name="图层 1"><rect class="cls-1" x="-48" y="82" width="179" height="15" rx="1.67" ry="1.67" transform="translate(-48 131) rotate(-90)"/><polygon class="cls-1" points="0 131 41 205 82 131 69 136 41 175 14 136 0 131"/><polygon class="cls-2" points="147 5 97 88 194 88 147 5"/><polygon class="cls-1" points="146.02 42.05 134 62 157.31 62 146.02 42.05"/><polygon class="cls-1" points="166 54 182.44 81 157 81 157.78 78.65 176.96 78.65 163.26 54 166 54"/><polygon class="cls-2" points="95.5 145.5 93 114 198 114 157 175 190.5 174.5 198.5 207.5 93 207 136.5 145.5 95.5 145.5"/><polygon class="cls-1" points="154 120 186 120 170 145 170 140 179 123.86 151 123 154 120"/><polygon class="cls-1" points="138.11 201.44 106.12 200.67 122.72 176.06 122.59 181.06 113.21 196.98 141.18 198.51 138.11 201.44"/></g></g></svg>