<svg xmlns="http://www.w3.org/2000/svg" viewBox="0 0 146.43 127.6"><defs><style>.cls-1{fill:#fff;}</style></defs><title>资源 1</title><g id="图层_2" data-name="图层 2"><g id="图层_1-2" data-name="图层 1"><path class="cls-1" d="M108,109.79c14-2.4,26.18-1.7,38.48,3.64l-4.63,8.85c-15.89-6.47-31.15-3-46.63,1.15-19.89,5.3-39.93,6.67-59.26-2.59C9.14,108-5.23,77.68,1.75,49.17,9,19.75,35.53-1,64.76,0,95.82,1.1,120.94,22.44,126.2,52.38c3.28,18.67-1,35.55-12.53,50.58-.81,1.06-1.68,2.08-2.53,3.1C110.44,106.9,109.72,107.73,108,109.79ZM64,15.61c-4,0-8,0-12,0-3.66,0-5,2-4.73,5.52.72,7.95,8.14,14.67,16.29,14.71S79.28,29.18,80,21.27c.38-3.87-1.31-5.71-5.18-5.67C71.26,15.63,67.65,15.6,64,15.61Zm-.8,96.13c4,0,8,0,12,0s5.27-2.32,4.8-6a16.46,16.46,0,0,0-32.64.24c-.43,3.81,1.11,5.79,5,5.77C56,111.72,59.63,111.73,63.24,111.73ZM85.76,40.07c.07,13.13,11.87,21.1,22.39,16.69,3.72-1.56,5-3.73,2.74-7.5-3.13-5.21-5.88-10.65-9.2-15.73-1.63-2.49-5.13-6.59-6.12-6.16-3.18,1.39-6,4.27-8.16,7.14C86,36.3,86,39.12,85.76,40.07Zm0,45.66-1.43.91c2.65,4.12,4.95,8.53,8.06,12.25,2.18,2.61,5.15,2.12,7-1.09,3.92-6.73,7.75-13.5,11.69-20.22,1.95-3.32.64-5.31-2.43-6.8C98.36,65.77,85.84,73.92,85.79,85.73ZM25.23,69.41c-9.34,0-11.53,3.75-6.93,11.75,3,5.26,6.17,10.47,9.09,15.79,2.42,4.4,5.24,4.28,8.68,1.27A16.83,16.83,0,0,0,40.68,80,16.56,16.56,0,0,0,25.23,69.41ZM42.87,41.05c-2.26-4-4.09-8.28-6.91-11.8s-6.11-3.31-8.56,1.1c-3.5,6.3-7.12,12.54-10.81,18.74-2.39,4-1,6.27,3,7.81C30.11,60.88,41.51,53.09,42.87,41.05ZM63.94,75.41a11.75,11.75,0,1,0-.49-23.5,11.75,11.75,0,1,0,.49,23.5Z"/></g></g></svg>