<svg xmlns="http://www.w3.org/2000/svg" viewBox="0 0 201.69 205.5"><defs><style>.cls-1{fill:#fff;}.cls-2{fill:none;stroke:#fff;stroke-miterlimit:10;stroke-width:5px;}</style></defs><title>资源 10</title><g id="图层_2" data-name="图层 2"><g id="图层_1-2" data-name="图层 1"><rect class="cls-1" x="-48" y="82" width="179" height="15" rx="1.67" ry="1.67" transform="translate(-48 131) rotate(-90)"/><polygon class="cls-1" points="0 131 41 205 82 131 69 136 41 175 14 136 0 131"/><polygon class="cls-2" points="142 120 92 203 189 203 142 120"/><polygon class="cls-1" points="141.02 157.05 129 177 152.31 177 141.02 157.05"/><polygon class="cls-1" points="161 169 177.44 196 152 196 152.78 193.65 171.96 193.65 158.26 169 161 169"/><polygon class="cls-2" points="94.5 34.5 92 3 197 3 156 64 189.5 63.5 197.5 96.5 92 96 135.5 34.5 94.5 34.5"/><polygon class="cls-1" points="153 9 185 9 169 34 169 29 178 12.86 150 12 153 9"/><polygon class="cls-1" points="137.11 90.44 105.12 89.67 121.72 65.06 121.59 70.06 112.21 85.98 140.18 87.51 137.11 90.44"/></g></g></svg>